<svg id="Layer_1" data-name="Layer 1" xmlns="http://www.w3.org/2000/svg" viewBox="0 0 942 119.42"><defs><style>.cls-1{fill:#fff;}.cls-2{fill:lime;}</style></defs><title>logo</title><path class="cls-1" d="M293.63,80.86c0-12.27-7.8-18-16.19-18s-16.2,5.7-16.2,18,8,18.11,16.2,18.11,16.19-5.84,16.19-18.11m22,0c0,22.5-16.63,38.56-38.17,38.56s-38.18-16.06-38.18-38.56S256,42.45,277.45,42.45s38.17,15.92,38.17,38.41M203.69,42.74c-6.36,0-13.88,2-18.36,6.57V11.48h-22V117.23h22V74.58c.43-6.72,4.91-11.69,11.85-11.69,8,0,11.71,5.41,11.71,12.56v41.77h22V71.66c0-15.92-8.39-28.92-27.19-28.92M142.66,14H118.08L104.77,36h17.5Zm9,30.68h-22V86c0,7.3-4.62,12.42-12,12.42-7.8,0-11.56-5.55-11.56-12.56V44.64h-22V90.5c0,15.48,9.83,28.34,27.33,28.34,7.23,0,15.47-2.63,19.23-8.91a53.35,53.35,0,0,0,.58,7.3h21.12a114,114,0,0,1-.73-13ZM53.79,80.86c0-12.27-7.66-18-16.2-18s-16.34,5.7-16.34,18c0,12,7.8,18.11,16.34,18.11s16.2-6,16.2-18.11m22-.15c0,22.2-14.17,38.12-34.27,38.12-9.54,0-16.92-4.24-20.24-9.79v8.18H0V11.48H21.54v40c3-4.53,11-8.62,20.82-8.62,20.83,0,33.41,16.07,33.41,37.83m619.3.72a60.18,60.18,0,0,0-13.7,2.28c-5.64,1.63-11.45,5.53-11.45,11.4,0,4.72,1.61,8.3,4.19,10.74a15.39,15.39,0,0,0,10.81,4.24,15.59,15.59,0,0,0,10-4.07Zm29.52,26.7s-10.65,10.27-18.72,10.27c-7.24,0-10.32-9-10.32-9s-10.64,9.28-20.48,9.28A18.43,18.43,0,0,1,662.5,113a16.5,16.5,0,0,1-5.32-11.89A16.77,16.77,0,0,1,662,89.58c4-4.24,10-7.33,16-9.12a73.08,73.08,0,0,1,17.08-2.77s.48-10.91.17-17.42c-.32-7.16-5.32-11.56-10.81-11.56-6.29,0-8.55,3.58-10.15,6.67-2.9,5.7-5,7.81-9.68,7.81-3.06,0-4.52-2.93-4.52-5.69s1.77-4.89,6.62-7.66c5.32-3.09,13.38-5.05,20.47-5.05,15.49,0,21.44,5.54,21.44,15.15,0,7.82-.32,12.37-.48,20.35-.16,8.47-.32,18.57-.16,21.66.32,4.89,3.06,7.33,6.61,7.33,3.86,0,8.55-3.42,8.55-3.42ZM630.32,25.9a9.12,9.12,0,1,0-9-9.13,9.06,9.06,0,0,0,9,9.13m7.09,79.8c-.15-5.69,0-61.06,0-61.06s-7.09,1.78-11.77,2.76C620.49,48.54,611.46,50,611.46,50v2.93l4,.33c6,.65,7.74,3.09,7.9,10.09.16,8,.16,34,0,42.34-.16,5.86-1.12,7-6.12,7.66l-5.49.65v3.31l38.54-.11V114l-6.29-.65c-5.15-.65-6.44-2.28-6.61-7.66M578.12,55.54c-1.46-2.77-8.55-6.35-16.29-6.35-13.7,0-22.08,10.91-22.08,30.29,0,10.42,2.58,19,8.38,24.75a20,20,0,0,0,14.35,6c9.19,0,13.87-3.75,15.49-4.89ZM600,112.86l4-.15v2.93s-8.06,1.14-13.38,1.63c-4.67.48-12.73,1.46-12.73,1.46v-9.11c-4.85,3.41-13.88,9.11-23.38,9.11-16,0-28.71-13.35-28.71-34.36,0-11.4,3.87-21.82,10.64-29C543.78,47.72,552,44.63,562,44.63c10.64,0,16.13,2.76,16.13,2.76,0-6-.16-20.68-.32-28.66-.16-7-1.94-9.44-7.9-10.1l-4-.32V5.38s9-1.48,14.19-2.61C584.73,1.79,592,0,592,0s-.16,33.71-.16,59.78,0,35,.16,43c.16,7.17,1.13,10.09,8.06,10.09M466.67,70s9.51.16,15.63.16c7.1,0,18.06-.16,18.06-.16,0-5.37-1.61-12.22-5.65-16.46C491.82,50.49,488.6,49,483.6,49c-12.26,0-16.13,13.52-16.78,19.71,0,.48-.15,1-.15,1.3m48.05,30.12,1.77,2.94a75.92,75.92,0,0,1-13.54,10.26c-5.8,3.26-11.78,5.37-19,5.37a29.8,29.8,0,0,1-20.79-9.28,37.22,37.22,0,0,1-9.83-25.56c0-14.33,5-24.76,11.44-30.95a28.6,28.6,0,0,1,20-8.3c7.24,0,12.58,1.46,17.25,4.39,8.87,5.7,12.74,16.29,13.23,25.9,0,0-20.32-.33-33.55-.33-6,0-15.31.17-15.31.17v1.3c0,9.45,2.41,17.43,6.92,23.29a24.56,24.56,0,0,0,20.16,9.77c10.48,0,18.7-6.68,21.29-9m-69.15,13.19,6.29.65v3.26H413.33V114l5.48-.65c5-.65,5.81-1.63,6.13-7.66s.32-9.12.32-17.26-.16-16.12-.48-20.68c-.48-9-6.61-14.17-14.68-14.17a29,29,0,0,0-17.24,6.2,30.86,30.86,0,0,1,.48,3.58c.16,2.77.32,14.33.16,20.53-.16,7.48-.16,15.46,0,21.82.16,5,1.45,7.16,6.61,7.66l6.29.65v3.26H367.86V114l5.48-.65c5-.65,5.8-1.63,6.12-7.66s.33-9.12.33-17.26-.16-16.12-.48-20.68c-.48-9-6.45-14.17-14.51-14.17a28,28,0,0,0-17.09,6s-.32,15-.15,23.12c0,8.15,0,17.27.15,23,.17,5.38,1.45,7,6.62,7.66l6.28.65v3.26H322.06V114l5.48-.65c5-.65,6-1.79,6.14-7.66.16-8.3.16-13,.16-21.17s0-13.19-.16-21.18c-.16-7-1.94-9.44-7.91-10.09l-4-.33V50s9-1.46,14.18-2.61c4.68-1,11.77-2.76,11.77-2.76L347.54,56A81.2,81.2,0,0,1,359,48.7a34.41,34.41,0,0,1,15.64-4.07,18.05,18.05,0,0,1,17.26,12.05,77.26,77.26,0,0,1,12.41-8,34.16,34.16,0,0,1,15.64-4.07c10.64,0,17.9,8,18.86,18.72.16,2.77.32,14.33.16,20.53-.16,7.48-.16,15.46,0,21.82.16,5,1.46,7.16,6.61,7.66"/><path class="cls-2" d="M889.14,11.51H814.49a52.85,52.85,0,0,0-51.73,52.84c0,29.2,22.15,54.72,52.86,52.86,17-1,31.11-10.25,35.41-30.32h1.35L866,117.23h23.36a52.86,52.86,0,0,0-.19-105.72Zm-73.51,76A23.16,23.16,0,1,1,838.8,64.37,23.16,23.16,0,0,1,815.63,87.53Zm73.51,0a23.16,23.16,0,1,1,23.16-23.16A23.17,23.17,0,0,1,889.14,87.53Z"/></svg>